<svg width="70" height="50" viewBox="0 0 70 50" fill="none" xmlns="http://www.w3.org/2000/svg">
<path d="M68.7647 36.7335C68.5526 36.4606 64.0679 30.7692 57.6321 28.0585C60.4272 21.1768 59.9311 13.7127 59.9011 13.3029L59.7488 11.2239L57.8501 11.0573C57.5237 11.0287 50.6769 10.4762 44.3754 13.5422C41.9076 6.51221 36.7363 1.61836 36.4505 1.3519L35.0003 0L33.5501 1.3519C33.2642 1.61836 28.0928 6.51221 25.6252 13.5422C19.3237 10.4763 12.477 11.0288 12.1505 11.0573L10.2517 11.2239L10.0994 13.3029C10.0695 13.7127 9.57332 21.177 12.3684 28.0585C5.93236 30.7692 1.44771 36.4606 1.23553 36.7335L0 38.3215L1.23484 39.9096C1.55531 40.3216 9.19461 50 18.9689 50C26.1506 50 32.1796 44.775 34.9999 41.8398C37.8201 44.775 43.8491 50 51.0308 50C60.8053 50 68.4443 40.3217 68.7649 39.9096L70 38.3215L68.7647 36.7335ZM28.99 40.9545C26.6115 42.8462 22.942 45.1014 18.969 45.1014C13.3967 45.1014 8.40875 40.7485 6.06088 38.3216C7.78244 36.5419 10.9221 33.7305 14.6743 32.3549C15.1147 32.9842 15.5958 33.5913 16.1223 34.168C20.0218 38.4375 25.4287 40.0017 29.4904 40.547C29.3278 40.6825 29.1612 40.8186 28.99 40.9545ZM19.286 30.7044C15.3456 26.39 14.6297 19.4503 14.5369 15.9164C16.9035 15.9906 20.9393 16.4336 24.4811 18.366C24.3861 19.1519 24.3343 19.9537 24.3343 20.7694C24.3343 26.8103 27.1506 32.1058 29.6715 35.6363C26.3782 35.1524 22.1948 33.8892 19.286 30.7044ZM34.997 34.9059C34.3108 34.1119 33.4552 33.0375 32.5955 31.7413C30.8678 29.1369 28.8081 25.1192 28.8081 20.7692C28.8081 14.6646 32.7873 9.20134 35.0033 6.63241C35.6893 7.4264 36.5451 8.50077 37.4047 9.79713C39.1325 12.4014 41.1921 16.4192 41.1921 20.7692C41.1921 26.8737 37.2129 32.337 34.997 34.9059ZM45.6658 20.7692C45.6658 19.9537 45.6139 19.1519 45.519 18.366C49.0638 16.4318 53.1035 15.9897 55.4683 15.9159C55.3823 19.4434 54.6751 26.3675 50.7142 30.7042C47.8207 33.8722 43.6349 35.1366 40.3368 35.625C42.8556 32.0945 45.6658 26.8038 45.6658 20.7692ZM61.0519 40.9545C58.6734 42.8462 55.0039 45.1014 51.031 45.1014C46.939 45.1014 43.1625 42.7543 40.515 40.5461C44.5762 39.9999 49.9801 38.4353 53.8774 34.1679C54.4042 33.5911 54.8852 32.9841 55.3254 32.3548C59.0807 33.7315 62.2225 36.546 63.9423 38.3248C63.217 39.076 62.2357 40.0131 61.0519 40.9545Z" fill="#FFAEBF"/>
</svg>
