<svg width="177" height="108" viewBox="0 0 177 108" fill="none" xmlns="http://www.w3.org/2000/svg">
<path d="M173.877 79.3444C173.34 78.7549 162 66.4615 145.727 60.6064C152.795 45.742 151.54 29.6195 151.464 28.7342L151.079 24.2436L146.278 23.8837C145.453 23.8219 128.14 22.6285 112.206 29.2512C105.966 14.0664 92.8904 3.49566 92.1676 2.92011L88.5007 0L84.8338 2.92011C84.111 3.49566 71.0347 14.0664 64.7951 29.2512C48.8613 22.6288 31.5489 23.8223 30.7233 23.8837L25.9222 24.2436L25.5371 28.7342C25.4614 29.6195 24.2068 45.7423 31.2744 60.6064C15.0004 66.4615 3.66065 78.7549 3.12412 79.3444L0 82.7744L3.12239 86.2048C3.93272 87.0946 23.2492 108 47.9642 108C66.1237 108 81.3685 96.714 88.4996 90.3739C95.6308 96.714 110.876 108 129.035 108C153.75 108 173.066 87.0949 173.877 86.2048L177 82.7744L173.877 79.3444ZM73.3032 88.4617C67.289 92.5478 58.0104 97.4189 47.9646 97.4189C33.8744 97.4189 21.2621 88.0168 15.3254 82.7747C19.6785 78.9305 27.6172 72.8578 37.105 69.8866C38.2185 71.246 39.435 72.5571 40.7663 73.803C50.6265 83.025 64.2984 86.4036 74.5685 87.5816C74.1575 87.8742 73.7361 88.1681 73.3032 88.4617ZM48.7659 66.3214C38.8024 57.0024 36.9923 42.0126 36.7576 34.3794C42.7417 34.5398 52.9465 35.4966 61.9023 39.6706C61.662 41.3681 61.531 43.1 61.531 44.8618C61.531 57.9103 68.6521 69.3486 75.0266 76.9743C66.6993 75.9293 56.1211 73.2006 48.7659 66.3214ZM88.4924 75.3967C86.7573 73.6817 84.5939 71.3611 82.4201 68.5612C78.0515 62.9357 72.8435 54.2575 72.8435 44.8615C72.8435 31.6756 82.9051 19.8749 88.5083 14.326C90.243 16.041 92.4068 18.3617 94.5806 21.1618C98.9492 26.787 104.157 35.4655 104.157 44.8615C104.157 58.0471 94.0956 69.8478 88.4924 75.3967ZM115.469 44.8615C115.469 43.1 115.338 41.3681 115.098 39.6706C124.061 35.4927 134.276 34.5378 140.256 34.3784C140.038 41.9977 138.25 56.9539 128.234 66.3211C120.918 73.164 110.334 75.895 101.995 76.9501C108.363 69.324 115.469 57.8961 115.469 44.8615ZM154.374 88.4617C148.36 92.5478 139.081 97.4189 129.035 97.4189C118.689 97.4189 109.14 92.3492 102.445 87.5796C112.714 86.3997 126.378 83.0202 136.233 73.8026C137.565 72.5568 138.781 71.2456 139.894 69.8863C149.39 72.8601 157.334 78.9393 161.683 82.7815C159.849 84.4041 157.368 86.4282 154.374 88.4617Z" fill="#FFAEBF"/>
</svg>
